<mxfile host="app.diagrams.net" modified="2021-12-17T05:48:40.011Z" agent="5.0 (Windows NT 10.0; Win64; x64) AppleWebKit/537.36 (KHTML, like Gecko) Chrome/96.0.4664.93 Safari/537.36" etag="u77kwm9s-xdKrFcaSDbd" version="15.9.4" type="github" pages="6">
  <diagram id="8wKtXyfTYVaqGpT1HOQp" name="Page-1">
    <mxGraphModel dx="1422" dy="786" grid="1" gridSize="10" guides="1" tooltips="1" connect="1" arrows="1" fold="1" page="1" pageScale="1" pageWidth="850" pageHeight="1100" math="0" shadow="0">
      <root>
        <mxCell id="0" />
        <mxCell id="1" parent="0" />
        <mxCell id="d3jZs8xW3lYLUa0X-JJD-1" value="What is Angular?&lt;br&gt;it is a framework for web development.&lt;br&gt;based on typescript&lt;br&gt;&lt;br&gt;version : 13 (latest version)&lt;br&gt;&lt;br&gt;How to create the angular project?&lt;br&gt;&lt;br&gt;npx @angular/cli new client&lt;br&gt;npx :&amp;nbsp;&lt;br&gt;&lt;br&gt;SPA : single page application &lt;b&gt;only one page&lt;/b&gt;." style="rounded=1;whiteSpace=wrap;html=1;" parent="1" vertex="1">
          <mxGeometry x="110" y="100" width="580" height="260" as="geometry" />
        </mxCell>
        <mxCell id="d3jZs8xW3lYLUa0X-JJD-5" value="" style="edgeStyle=orthogonalEdgeStyle;rounded=0;orthogonalLoop=1;jettySize=auto;html=1;" parent="1" source="d3jZs8xW3lYLUa0X-JJD-3" target="d3jZs8xW3lYLUa0X-JJD-4" edge="1">
          <mxGeometry relative="1" as="geometry" />
        </mxCell>
        <mxCell id="d3jZs8xW3lYLUa0X-JJD-7" value="" style="edgeStyle=orthogonalEdgeStyle;rounded=0;orthogonalLoop=1;jettySize=auto;html=1;" parent="1" source="d3jZs8xW3lYLUa0X-JJD-3" target="d3jZs8xW3lYLUa0X-JJD-6" edge="1">
          <mxGeometry relative="1" as="geometry">
            <Array as="points">
              <mxPoint x="700" y="495" />
              <mxPoint x="700" y="620" />
            </Array>
          </mxGeometry>
        </mxCell>
        <mxCell id="d3jZs8xW3lYLUa0X-JJD-3" value="npx ng serve -o : will start ur application" style="rounded=1;whiteSpace=wrap;html=1;" parent="1" vertex="1">
          <mxGeometry x="110" y="460" width="520" height="70" as="geometry" />
        </mxCell>
        <mxCell id="d3jZs8xW3lYLUa0X-JJD-15" value="" style="edgeStyle=orthogonalEdgeStyle;rounded=0;orthogonalLoop=1;jettySize=auto;html=1;" parent="1" source="d3jZs8xW3lYLUa0X-JJD-4" target="d3jZs8xW3lYLUa0X-JJD-14" edge="1">
          <mxGeometry relative="1" as="geometry" />
        </mxCell>
        <mxCell id="d3jZs8xW3lYLUa0X-JJD-17" value="" style="edgeStyle=orthogonalEdgeStyle;rounded=0;orthogonalLoop=1;jettySize=auto;html=1;" parent="1" source="d3jZs8xW3lYLUa0X-JJD-4" target="d3jZs8xW3lYLUa0X-JJD-16" edge="1">
          <mxGeometry relative="1" as="geometry">
            <Array as="points">
              <mxPoint x="840" y="400" />
            </Array>
          </mxGeometry>
        </mxCell>
        <mxCell id="d3jZs8xW3lYLUa0X-JJD-4" value="angular.json" style="whiteSpace=wrap;html=1;rounded=1;" parent="1" vertex="1">
          <mxGeometry x="760" y="465" width="120" height="60" as="geometry" />
        </mxCell>
        <mxCell id="d3jZs8xW3lYLUa0X-JJD-9" value="" style="edgeStyle=orthogonalEdgeStyle;rounded=0;orthogonalLoop=1;jettySize=auto;html=1;" parent="1" source="d3jZs8xW3lYLUa0X-JJD-6" target="d3jZs8xW3lYLUa0X-JJD-8" edge="1">
          <mxGeometry relative="1" as="geometry" />
        </mxCell>
        <mxCell id="d3jZs8xW3lYLUa0X-JJD-6" value="tsconfig.app.json" style="whiteSpace=wrap;html=1;rounded=1;fillColor=#ffe6cc;strokeColor=#d79b00;" parent="1" vertex="1">
          <mxGeometry x="760" y="590" width="120" height="60" as="geometry" />
        </mxCell>
        <mxCell id="d3jZs8xW3lYLUa0X-JJD-8" value="tsconfig.json" style="whiteSpace=wrap;html=1;rounded=1;fillColor=#ffe6cc;strokeColor=#d79b00;" parent="1" vertex="1">
          <mxGeometry x="960" y="590" width="120" height="60" as="geometry" />
        </mxCell>
        <mxCell id="d3jZs8xW3lYLUa0X-JJD-12" value="" style="edgeStyle=orthogonalEdgeStyle;rounded=0;orthogonalLoop=1;jettySize=auto;html=1;" parent="1" source="d3jZs8xW3lYLUa0X-JJD-10" target="d3jZs8xW3lYLUa0X-JJD-11" edge="1">
          <mxGeometry relative="1" as="geometry" />
        </mxCell>
        <mxCell id="d3jZs8xW3lYLUa0X-JJD-10" value="browsers : will they understand js/ts?" style="rounded=1;whiteSpace=wrap;html=1;" parent="1" vertex="1">
          <mxGeometry x="670" y="815" width="120" height="60" as="geometry" />
        </mxCell>
        <mxCell id="d3jZs8xW3lYLUa0X-JJD-11" value="ts to js" style="whiteSpace=wrap;html=1;rounded=1;" parent="1" vertex="1">
          <mxGeometry x="870" y="815" width="120" height="60" as="geometry" />
        </mxCell>
        <mxCell id="d3jZs8xW3lYLUa0X-JJD-13" value="will be responsible to transform ts to js" style="text;html=1;strokeColor=#82b366;fillColor=#d5e8d4;align=center;verticalAlign=middle;whiteSpace=wrap;rounded=0;" parent="1" vertex="1">
          <mxGeometry x="870" y="650" width="110" height="70" as="geometry" />
        </mxCell>
        <mxCell id="d3jZs8xW3lYLUa0X-JJD-14" value="index : src/index.html" style="whiteSpace=wrap;html=1;rounded=1;" parent="1" vertex="1">
          <mxGeometry x="960" y="465" width="120" height="60" as="geometry" />
        </mxCell>
        <mxCell id="cVatPit6gG128qzmSF5x-1" style="edgeStyle=orthogonalEdgeStyle;rounded=0;orthogonalLoop=1;jettySize=auto;html=1;entryX=1;entryY=0.659;entryDx=0;entryDy=0;entryPerimeter=0;fontSize=17;" parent="1" source="d3jZs8xW3lYLUa0X-JJD-16" target="d3jZs8xW3lYLUa0X-JJD-18" edge="1">
          <mxGeometry relative="1" as="geometry">
            <Array as="points">
              <mxPoint x="670" y="400" />
              <mxPoint x="670" y="654" />
            </Array>
          </mxGeometry>
        </mxCell>
        <mxCell id="d3jZs8xW3lYLUa0X-JJD-16" value="main : src/main.ts" style="whiteSpace=wrap;html=1;rounded=1;" parent="1" vertex="1">
          <mxGeometry x="960" y="370" width="120" height="60" as="geometry" />
        </mxCell>
        <mxCell id="d3jZs8xW3lYLUa0X-JJD-21" value="" style="edgeStyle=orthogonalEdgeStyle;rounded=0;orthogonalLoop=1;jettySize=auto;html=1;" parent="1" source="d3jZs8xW3lYLUa0X-JJD-18" target="d3jZs8xW3lYLUa0X-JJD-20" edge="1">
          <mxGeometry relative="1" as="geometry" />
        </mxCell>
        <mxCell id="cVatPit6gG128qzmSF5x-3" value="" style="edgeStyle=orthogonalEdgeStyle;rounded=0;orthogonalLoop=1;jettySize=auto;html=1;fontSize=17;" parent="1" source="d3jZs8xW3lYLUa0X-JJD-18" target="cVatPit6gG128qzmSF5x-2" edge="1">
          <mxGeometry relative="1" as="geometry" />
        </mxCell>
        <mxCell id="d3jZs8xW3lYLUa0X-JJD-18" value="AppModule.ts" style="whiteSpace=wrap;html=1;rounded=1;" parent="1" vertex="1">
          <mxGeometry x="310" y="615" width="120" height="60" as="geometry" />
        </mxCell>
        <mxCell id="d3jZs8xW3lYLUa0X-JJD-23" value="" style="edgeStyle=orthogonalEdgeStyle;rounded=0;orthogonalLoop=1;jettySize=auto;html=1;" parent="1" source="d3jZs8xW3lYLUa0X-JJD-20" target="d3jZs8xW3lYLUa0X-JJD-22" edge="1">
          <mxGeometry relative="1" as="geometry" />
        </mxCell>
        <mxCell id="cVatPit6gG128qzmSF5x-5" value="" style="edgeStyle=orthogonalEdgeStyle;rounded=0;orthogonalLoop=1;jettySize=auto;html=1;fontSize=17;" parent="1" source="d3jZs8xW3lYLUa0X-JJD-20" target="cVatPit6gG128qzmSF5x-4" edge="1">
          <mxGeometry relative="1" as="geometry" />
        </mxCell>
        <mxCell id="d3jZs8xW3lYLUa0X-JJD-20" value="AppComponent" style="whiteSpace=wrap;html=1;rounded=1;" parent="1" vertex="1">
          <mxGeometry x="310" y="755" width="120" height="60" as="geometry" />
        </mxCell>
        <mxCell id="d3jZs8xW3lYLUa0X-JJD-22" value="will take the content from app.component.html &amp;amp; will render it over the index.html" style="whiteSpace=wrap;html=1;rounded=1;" parent="1" vertex="1">
          <mxGeometry x="300" y="910" width="140" height="60" as="geometry" />
        </mxCell>
        <mxCell id="cVatPit6gG128qzmSF5x-2" value="core module is imported" style="whiteSpace=wrap;html=1;rounded=1;" parent="1" vertex="1">
          <mxGeometry x="110" y="615" width="120" height="60" as="geometry" />
        </mxCell>
        <mxCell id="cVatPit6gG128qzmSF5x-6" style="edgeStyle=orthogonalEdgeStyle;rounded=0;orthogonalLoop=1;jettySize=auto;html=1;fontSize=17;" parent="1" source="cVatPit6gG128qzmSF5x-4" edge="1">
          <mxGeometry relative="1" as="geometry">
            <mxPoint x="170" y="680" as="targetPoint" />
          </mxGeometry>
        </mxCell>
        <mxCell id="cVatPit6gG128qzmSF5x-4" value="Header&amp;nbsp;&lt;br&gt;Landing&lt;br&gt;Footer" style="whiteSpace=wrap;html=1;rounded=1;" parent="1" vertex="1">
          <mxGeometry x="110" y="755" width="120" height="60" as="geometry" />
        </mxCell>
      </root>
    </mxGraphModel>
  </diagram>
  <diagram id="hpuAVT7ezRDxh1c0SeCZ" name="project workflow modulewise">
    <mxGraphModel dx="2272" dy="786" grid="1" gridSize="10" guides="1" tooltips="1" connect="1" arrows="1" fold="1" page="1" pageScale="1" pageWidth="850" pageHeight="1100" math="0" shadow="0">
      <root>
        <mxCell id="kVPNir_o51l7BGw-h_kI-0" />
        <mxCell id="kVPNir_o51l7BGw-h_kI-1" parent="kVPNir_o51l7BGw-h_kI-0" />
        <mxCell id="7PutH0O-MdIxxuj6owK--3" value="" style="edgeStyle=orthogonalEdgeStyle;rounded=0;orthogonalLoop=1;jettySize=auto;html=1;fontSize=17;" parent="kVPNir_o51l7BGw-h_kI-1" source="kVPNir_o51l7BGw-h_kI-2" target="7PutH0O-MdIxxuj6owK--2" edge="1">
          <mxGeometry relative="1" as="geometry" />
        </mxCell>
        <mxCell id="7PutH0O-MdIxxuj6owK--5" value="" style="edgeStyle=orthogonalEdgeStyle;rounded=0;orthogonalLoop=1;jettySize=auto;html=1;fontSize=17;" parent="kVPNir_o51l7BGw-h_kI-1" source="kVPNir_o51l7BGw-h_kI-2" target="7PutH0O-MdIxxuj6owK--4" edge="1">
          <mxGeometry relative="1" as="geometry" />
        </mxCell>
        <mxCell id="7PutH0O-MdIxxuj6owK--7" value="" style="edgeStyle=orthogonalEdgeStyle;rounded=0;orthogonalLoop=1;jettySize=auto;html=1;fontSize=17;" parent="kVPNir_o51l7BGw-h_kI-1" source="kVPNir_o51l7BGw-h_kI-2" target="7PutH0O-MdIxxuj6owK--6" edge="1">
          <mxGeometry relative="1" as="geometry" />
        </mxCell>
        <mxCell id="7PutH0O-MdIxxuj6owK--9" value="" style="edgeStyle=orthogonalEdgeStyle;rounded=0;orthogonalLoop=1;jettySize=auto;html=1;fontSize=17;" parent="kVPNir_o51l7BGw-h_kI-1" source="kVPNir_o51l7BGw-h_kI-2" target="7PutH0O-MdIxxuj6owK--8" edge="1">
          <mxGeometry relative="1" as="geometry" />
        </mxCell>
        <mxCell id="7PutH0O-MdIxxuj6owK--11" value="" style="edgeStyle=orthogonalEdgeStyle;rounded=0;orthogonalLoop=1;jettySize=auto;html=1;fontSize=17;" parent="kVPNir_o51l7BGw-h_kI-1" source="kVPNir_o51l7BGw-h_kI-2" target="7PutH0O-MdIxxuj6owK--10" edge="1">
          <mxGeometry relative="1" as="geometry" />
        </mxCell>
        <mxCell id="7PutH0O-MdIxxuj6owK--13" value="" style="edgeStyle=orthogonalEdgeStyle;rounded=0;orthogonalLoop=1;jettySize=auto;html=1;fontSize=17;" parent="kVPNir_o51l7BGw-h_kI-1" source="kVPNir_o51l7BGw-h_kI-2" target="7PutH0O-MdIxxuj6owK--12" edge="1">
          <mxGeometry relative="1" as="geometry" />
        </mxCell>
        <mxCell id="7PutH0O-MdIxxuj6owK--15" value="" style="edgeStyle=orthogonalEdgeStyle;rounded=0;orthogonalLoop=1;jettySize=auto;html=1;fontSize=17;" parent="kVPNir_o51l7BGw-h_kI-1" source="kVPNir_o51l7BGw-h_kI-2" target="7PutH0O-MdIxxuj6owK--14" edge="1">
          <mxGeometry relative="1" as="geometry" />
        </mxCell>
        <mxCell id="kVPNir_o51l7BGw-h_kI-2" value="DevConnector" style="rounded=1;whiteSpace=wrap;html=1;fontSize=17;" parent="kVPNir_o51l7BGw-h_kI-1" vertex="1">
          <mxGeometry x="300" y="260" width="180" height="60" as="geometry" />
        </mxCell>
        <mxCell id="kVPNir_o51l7BGw-h_kI-3" value="1. register , login&lt;br&gt;2. create profile, update CRUD&lt;br&gt;3. Create a new post&lt;br&gt;4. comments on the post &amp;amp; reply" style="rounded=1;whiteSpace=wrap;html=1;fontSize=17;" parent="kVPNir_o51l7BGw-h_kI-1" vertex="1">
          <mxGeometry x="110" y="20" width="270" height="150" as="geometry" />
        </mxCell>
        <mxCell id="7PutH0O-MdIxxuj6owK--1" value="" style="edgeStyle=orthogonalEdgeStyle;rounded=0;orthogonalLoop=1;jettySize=auto;html=1;fontSize=17;" parent="kVPNir_o51l7BGw-h_kI-1" source="kVPNir_o51l7BGw-h_kI-4" target="7PutH0O-MdIxxuj6owK--0" edge="1">
          <mxGeometry relative="1" as="geometry" />
        </mxCell>
        <mxCell id="kVPNir_o51l7BGw-h_kI-4" value="module" style="rounded=1;whiteSpace=wrap;html=1;fontSize=17;" parent="kVPNir_o51l7BGw-h_kI-1" vertex="1">
          <mxGeometry x="-675" y="20" width="120" height="60" as="geometry" />
        </mxCell>
        <mxCell id="7PutH0O-MdIxxuj6owK--0" value="it is a logical container which is capable to hold&amp;nbsp;&lt;br&gt;components&lt;br&gt;services&lt;br&gt;guards&lt;br&gt;interceptors&lt;br&gt;pipes&lt;br&gt;directives&lt;br&gt;etc" style="whiteSpace=wrap;html=1;fontSize=17;rounded=1;" parent="kVPNir_o51l7BGw-h_kI-1" vertex="1">
          <mxGeometry x="-850" y="200" width="470" height="210" as="geometry" />
        </mxCell>
        <mxCell id="7PutH0O-MdIxxuj6owK--2" value="core module" style="whiteSpace=wrap;html=1;fontSize=17;rounded=1;" parent="kVPNir_o51l7BGw-h_kI-1" vertex="1">
          <mxGeometry x="-60" y="400" width="120" height="60" as="geometry" />
        </mxCell>
        <mxCell id="7PutH0O-MdIxxuj6owK--4" value="usermodule" style="whiteSpace=wrap;html=1;fontSize=17;rounded=1;" parent="kVPNir_o51l7BGw-h_kI-1" vertex="1">
          <mxGeometry x="110" y="400" width="120" height="60" as="geometry" />
        </mxCell>
        <mxCell id="7PutH0O-MdIxxuj6owK--6" value="dashboard module" style="whiteSpace=wrap;html=1;fontSize=17;rounded=1;" parent="kVPNir_o51l7BGw-h_kI-1" vertex="1">
          <mxGeometry x="330" y="400" width="120" height="60" as="geometry" />
        </mxCell>
        <mxCell id="7PutH0O-MdIxxuj6owK--8" value="profile module" style="whiteSpace=wrap;html=1;fontSize=17;rounded=1;" parent="kVPNir_o51l7BGw-h_kI-1" vertex="1">
          <mxGeometry x="570" y="400" width="120" height="60" as="geometry" />
        </mxCell>
        <mxCell id="7PutH0O-MdIxxuj6owK--10" value="post module" style="whiteSpace=wrap;html=1;fontSize=17;rounded=1;" parent="kVPNir_o51l7BGw-h_kI-1" vertex="1">
          <mxGeometry x="780" y="400" width="120" height="60" as="geometry" />
        </mxCell>
        <mxCell id="7PutH0O-MdIxxuj6owK--12" value="comment module" style="whiteSpace=wrap;html=1;fontSize=17;rounded=1;" parent="kVPNir_o51l7BGw-h_kI-1" vertex="1">
          <mxGeometry x="990" y="400" width="120" height="60" as="geometry" />
        </mxCell>
        <mxCell id="7PutH0O-MdIxxuj6owK--14" value="shared module" style="whiteSpace=wrap;html=1;fontSize=17;rounded=1;" parent="kVPNir_o51l7BGw-h_kI-1" vertex="1">
          <mxGeometry x="490" y="620" width="120" height="60" as="geometry" />
        </mxCell>
        <mxCell id="7PutH0O-MdIxxuj6owK--16" value="Header&amp;nbsp;&lt;br&gt;Landing&amp;nbsp;&lt;br&gt;Footer" style="rounded=1;whiteSpace=wrap;html=1;fontSize=17;" parent="kVPNir_o51l7BGw-h_kI-1" vertex="1">
          <mxGeometry x="-270" y="410" width="120" height="60" as="geometry" />
        </mxCell>
        <mxCell id="7PutH0O-MdIxxuj6owK--17" value="commonly req / frequently req content we will hold it in core module" style="rounded=1;whiteSpace=wrap;html=1;fontSize=17;fillColor=#0050ef;strokeColor=#001DBC;fontColor=#ffffff;" parent="kVPNir_o51l7BGw-h_kI-1" vertex="1">
          <mxGeometry x="-300" y="510" width="180" height="100" as="geometry" />
        </mxCell>
        <mxCell id="MXOgiISOOPb5jkm2H3v0-2" value="" style="edgeStyle=orthogonalEdgeStyle;rounded=0;orthogonalLoop=1;jettySize=auto;html=1;" edge="1" parent="kVPNir_o51l7BGw-h_kI-1" source="MXOgiISOOPb5jkm2H3v0-0" target="MXOgiISOOPb5jkm2H3v0-1">
          <mxGeometry relative="1" as="geometry" />
        </mxCell>
        <mxCell id="MXOgiISOOPb5jkm2H3v0-0" value="interceptors folder" style="rounded=1;whiteSpace=wrap;html=1;" vertex="1" parent="kVPNir_o51l7BGw-h_kI-1">
          <mxGeometry x="120" y="580" width="120" height="60" as="geometry" />
        </mxCell>
        <mxCell id="MXOgiISOOPb5jkm2H3v0-3" style="edgeStyle=orthogonalEdgeStyle;rounded=0;orthogonalLoop=1;jettySize=auto;html=1;entryX=0.5;entryY=1;entryDx=0;entryDy=0;" edge="1" parent="kVPNir_o51l7BGw-h_kI-1" source="MXOgiISOOPb5jkm2H3v0-1" target="7PutH0O-MdIxxuj6owK--2">
          <mxGeometry relative="1" as="geometry" />
        </mxCell>
        <mxCell id="MXOgiISOOPb5jkm2H3v0-4" style="edgeStyle=orthogonalEdgeStyle;rounded=0;orthogonalLoop=1;jettySize=auto;html=1;entryX=0.5;entryY=1;entryDx=0;entryDy=0;" edge="1" parent="kVPNir_o51l7BGw-h_kI-1" source="MXOgiISOOPb5jkm2H3v0-1" target="7PutH0O-MdIxxuj6owK--6">
          <mxGeometry relative="1" as="geometry" />
        </mxCell>
        <mxCell id="MXOgiISOOPb5jkm2H3v0-5" style="edgeStyle=orthogonalEdgeStyle;rounded=0;orthogonalLoop=1;jettySize=auto;html=1;" edge="1" parent="kVPNir_o51l7BGw-h_kI-1" source="MXOgiISOOPb5jkm2H3v0-1" target="7PutH0O-MdIxxuj6owK--4">
          <mxGeometry relative="1" as="geometry" />
        </mxCell>
        <mxCell id="MXOgiISOOPb5jkm2H3v0-6" style="edgeStyle=orthogonalEdgeStyle;rounded=0;orthogonalLoop=1;jettySize=auto;html=1;" edge="1" parent="kVPNir_o51l7BGw-h_kI-1" source="MXOgiISOOPb5jkm2H3v0-1" target="7PutH0O-MdIxxuj6owK--8">
          <mxGeometry relative="1" as="geometry" />
        </mxCell>
        <mxCell id="MXOgiISOOPb5jkm2H3v0-7" style="edgeStyle=orthogonalEdgeStyle;rounded=0;orthogonalLoop=1;jettySize=auto;html=1;entryX=0.5;entryY=1;entryDx=0;entryDy=0;" edge="1" parent="kVPNir_o51l7BGw-h_kI-1" source="MXOgiISOOPb5jkm2H3v0-1" target="7PutH0O-MdIxxuj6owK--10">
          <mxGeometry relative="1" as="geometry" />
        </mxCell>
        <mxCell id="MXOgiISOOPb5jkm2H3v0-1" value="index.ts" style="whiteSpace=wrap;html=1;rounded=1;" vertex="1" parent="kVPNir_o51l7BGw-h_kI-1">
          <mxGeometry x="120" y="730" width="120" height="60" as="geometry" />
        </mxCell>
      </root>
    </mxGraphModel>
  </diagram>
  <diagram id="BZunDUwTPzm0wVK9eZRC" name="component">
    <mxGraphModel dx="1422" dy="786" grid="1" gridSize="10" guides="1" tooltips="1" connect="1" arrows="1" fold="1" page="1" pageScale="1" pageWidth="850" pageHeight="1100" math="0" shadow="0">
      <root>
        <mxCell id="S2hMS_f9CFPcgxcP1Axe-0" />
        <mxCell id="S2hMS_f9CFPcgxcP1Axe-1" parent="S2hMS_f9CFPcgxcP1Axe-0" />
        <mxCell id="S2hMS_f9CFPcgxcP1Axe-4" value="" style="edgeStyle=orthogonalEdgeStyle;rounded=0;orthogonalLoop=1;jettySize=auto;html=1;fontSize=17;" parent="S2hMS_f9CFPcgxcP1Axe-1" source="S2hMS_f9CFPcgxcP1Axe-2" target="S2hMS_f9CFPcgxcP1Axe-3" edge="1">
          <mxGeometry relative="1" as="geometry" />
        </mxCell>
        <mxCell id="S2hMS_f9CFPcgxcP1Axe-2" value="Component : it is capable to hold the unit of amount of UI related part." style="rounded=1;whiteSpace=wrap;html=1;fontSize=17;" parent="S2hMS_f9CFPcgxcP1Axe-1" vertex="1">
          <mxGeometry x="170" y="180" width="300" height="60" as="geometry" />
        </mxCell>
        <mxCell id="S2hMS_f9CFPcgxcP1Axe-6" value="" style="edgeStyle=orthogonalEdgeStyle;rounded=0;orthogonalLoop=1;jettySize=auto;html=1;fontSize=17;" parent="S2hMS_f9CFPcgxcP1Axe-1" source="S2hMS_f9CFPcgxcP1Axe-3" target="S2hMS_f9CFPcgxcP1Axe-5" edge="1">
          <mxGeometry relative="1" as="geometry" />
        </mxCell>
        <mxCell id="S2hMS_f9CFPcgxcP1Axe-3" value="we should design the components in such a way that it should not split into multiple parts." style="whiteSpace=wrap;html=1;fontSize=17;rounded=1;fillColor=#f8cecc;strokeColor=#b85450;" parent="S2hMS_f9CFPcgxcP1Axe-1" vertex="1">
          <mxGeometry x="187.5" y="330" width="265" height="90" as="geometry" />
        </mxCell>
        <mxCell id="S2hMS_f9CFPcgxcP1Axe-5" value="to have reusability&lt;br&gt;to EOM" style="whiteSpace=wrap;html=1;fontSize=17;rounded=1;" parent="S2hMS_f9CFPcgxcP1Axe-1" vertex="1">
          <mxGeometry x="215" y="480" width="210" height="60" as="geometry" />
        </mxCell>
      </root>
    </mxGraphModel>
  </diagram>
  <diagram id="9FUbBgTbsdYFER2tDYLz" name="Layout of application">
    <mxGraphModel dx="2272" dy="786" grid="1" gridSize="10" guides="1" tooltips="1" connect="1" arrows="1" fold="1" page="1" pageScale="1" pageWidth="850" pageHeight="1100" math="0" shadow="0">
      <root>
        <mxCell id="d8XagqmFQlvUSAe0DWYs-0" />
        <mxCell id="d8XagqmFQlvUSAe0DWYs-1" parent="d8XagqmFQlvUSAe0DWYs-0" />
        <mxCell id="d8XagqmFQlvUSAe0DWYs-2" value="" style="rounded=1;whiteSpace=wrap;html=1;fontSize=17;" parent="d8XagqmFQlvUSAe0DWYs-1" vertex="1">
          <mxGeometry x="180" y="170" width="450" height="470" as="geometry" />
        </mxCell>
        <mxCell id="d8XagqmFQlvUSAe0DWYs-3" value="index.html" style="text;html=1;strokeColor=#6c8ebf;fillColor=#dae8fc;align=center;verticalAlign=middle;whiteSpace=wrap;rounded=0;fontSize=17;" parent="d8XagqmFQlvUSAe0DWYs-1" vertex="1">
          <mxGeometry x="220" y="200" width="120" height="30" as="geometry" />
        </mxCell>
        <mxCell id="d8XagqmFQlvUSAe0DWYs-8" value="" style="edgeStyle=orthogonalEdgeStyle;rounded=0;orthogonalLoop=1;jettySize=auto;html=1;fontSize=17;" parent="d8XagqmFQlvUSAe0DWYs-1" source="d8XagqmFQlvUSAe0DWYs-4" target="d8XagqmFQlvUSAe0DWYs-7" edge="1">
          <mxGeometry relative="1" as="geometry" />
        </mxCell>
        <mxCell id="d8XagqmFQlvUSAe0DWYs-4" value="Header" style="rounded=1;whiteSpace=wrap;html=1;fontSize=17;fillColor=#fff2cc;strokeColor=#d6b656;" parent="d8XagqmFQlvUSAe0DWYs-1" vertex="1">
          <mxGeometry x="200" y="260" width="410" height="100" as="geometry" />
        </mxCell>
        <mxCell id="d8XagqmFQlvUSAe0DWYs-10" value="" style="edgeStyle=orthogonalEdgeStyle;rounded=0;orthogonalLoop=1;jettySize=auto;html=1;fontSize=17;" parent="d8XagqmFQlvUSAe0DWYs-1" source="d8XagqmFQlvUSAe0DWYs-5" target="d8XagqmFQlvUSAe0DWYs-9" edge="1">
          <mxGeometry relative="1" as="geometry" />
        </mxCell>
        <mxCell id="d8XagqmFQlvUSAe0DWYs-5" value="Landing" style="rounded=1;whiteSpace=wrap;html=1;fontSize=17;fillColor=#d5e8d4;strokeColor=#82b366;" parent="d8XagqmFQlvUSAe0DWYs-1" vertex="1">
          <mxGeometry x="200" y="380" width="410" height="100" as="geometry" />
        </mxCell>
        <mxCell id="d8XagqmFQlvUSAe0DWYs-12" value="" style="edgeStyle=orthogonalEdgeStyle;rounded=0;orthogonalLoop=1;jettySize=auto;html=1;fontSize=17;" parent="d8XagqmFQlvUSAe0DWYs-1" source="d8XagqmFQlvUSAe0DWYs-6" target="d8XagqmFQlvUSAe0DWYs-11" edge="1">
          <mxGeometry relative="1" as="geometry" />
        </mxCell>
        <mxCell id="d8XagqmFQlvUSAe0DWYs-6" value="Footer" style="rounded=1;whiteSpace=wrap;html=1;fontSize=17;fillColor=#e1d5e7;strokeColor=#9673a6;" parent="d8XagqmFQlvUSAe0DWYs-1" vertex="1">
          <mxGeometry x="200" y="500" width="410" height="100" as="geometry" />
        </mxCell>
        <mxCell id="d8XagqmFQlvUSAe0DWYs-7" value="Logo/company Name / application name followed by some links like register login etc" style="whiteSpace=wrap;html=1;fontSize=17;fillColor=#fff2cc;strokeColor=#d6b656;rounded=1;" parent="d8XagqmFQlvUSAe0DWYs-1" vertex="1">
          <mxGeometry x="835" y="220" width="255" height="180" as="geometry" />
        </mxCell>
        <mxCell id="d8XagqmFQlvUSAe0DWYs-9" value="Some info about the company/ application" style="whiteSpace=wrap;html=1;fontSize=17;fillColor=#d5e8d4;strokeColor=#82b366;rounded=1;" parent="d8XagqmFQlvUSAe0DWYs-1" vertex="1">
          <mxGeometry x="-160" y="375" width="185" height="110" as="geometry" />
        </mxCell>
        <mxCell id="d8XagqmFQlvUSAe0DWYs-11" value="copy right related stuff" style="whiteSpace=wrap;html=1;fontSize=17;fillColor=#e1d5e7;strokeColor=#9673a6;rounded=1;" parent="d8XagqmFQlvUSAe0DWYs-1" vertex="1">
          <mxGeometry x="835" y="520" width="165" height="60" as="geometry" />
        </mxCell>
        <mxCell id="Tlqsoo-bQ3I48uV5OHhA-0" value="layouting of ur application&amp;nbsp;&lt;br&gt;layout" style="rounded=1;whiteSpace=wrap;html=1;fontSize=17;" parent="d8XagqmFQlvUSAe0DWYs-1" vertex="1">
          <mxGeometry x="-30" y="210" width="120" height="60" as="geometry" />
        </mxCell>
      </root>
    </mxGraphModel>
  </diagram>
  <diagram id="GcjFNTFMMTHbe-Og3p87" name="Page-5">
    <mxGraphModel dx="1422" dy="786" grid="1" gridSize="10" guides="1" tooltips="1" connect="1" arrows="1" fold="1" page="1" pageScale="1" pageWidth="850" pageHeight="1100" math="0" shadow="0">
      <root>
        <mxCell id="TQNad_ElekbtFOK2W27j-0" />
        <mxCell id="TQNad_ElekbtFOK2W27j-1" parent="TQNad_ElekbtFOK2W27j-0" />
      </root>
    </mxGraphModel>
  </diagram>
  <diagram id="pOyED9rm_e5Rjh6ENJns" name="interceptor">
    <mxGraphModel dx="1422" dy="786" grid="1" gridSize="10" guides="1" tooltips="1" connect="1" arrows="1" fold="1" page="1" pageScale="1" pageWidth="850" pageHeight="1100" math="0" shadow="0">
      <root>
        <mxCell id="zIWYaTO65Ezc0vRR0tgL-0" />
        <mxCell id="zIWYaTO65Ezc0vRR0tgL-1" parent="zIWYaTO65Ezc0vRR0tgL-0" />
        <mxCell id="zIWYaTO65Ezc0vRR0tgL-2" value="" style="rounded=1;whiteSpace=wrap;html=1;" vertex="1" parent="zIWYaTO65Ezc0vRR0tgL-1">
          <mxGeometry x="170" y="80" width="120" height="60" as="geometry" />
        </mxCell>
      </root>
    </mxGraphModel>
  </diagram>
</mxfile>
